<?xml version="1.0" encoding="utf-8"?>
<svg xmlns="http://www.w3.org/2000/svg" xmlns:xlink="http://www.w3.org/1999/xlink" style="margin: auto; background: none; display: block; shape-rendering: auto;" width="213px" height="213px" viewBox="0 0 100 100" preserveAspectRatio="xMidYMid">
<g transform="rotate(0 50 50)">
  <rect x="45.5" y="16.5" rx="4.5" ry="5.5" width="9" height="11" fill="#3c8dbc">
    <animate attributeName="opacity" values="1;0" keyTimes="0;1" dur="1.020408163265306s" begin="-1.010204081632653s" repeatCount="indefinite"></animate>
  </rect>
</g><g transform="rotate(3.6 50 50)">
  <rect x="45.5" y="16.5" rx="4.5" ry="5.5" width="9" height="11" fill="#3c8dbc">
    <animate attributeName="opacity" values="1;0" keyTimes="0;1" dur="1.020408163265306s" begin="-0.9999999999999999s" repeatCount="indefinite"></animate>
  </rect>
</g><g transform="rotate(7.2 50 50)">
  <rect x="45.5" y="16.5" rx="4.5" ry="5.5" width="9" height="11" fill="#3c8dbc">
    <animate attributeName="opacity" values="1;0" keyTimes="0;1" dur="1.020408163265306s" begin="-0.9897959183673468s" repeatCount="indefinite"></animate>
  </rect>
</g><g transform="rotate(10.8 50 50)">
  <rect x="45.5" y="16.5" rx="4.5" ry="5.5" width="9" height="11" fill="#3c8dbc">
    <animate attributeName="opacity" values="1;0" keyTimes="0;1" dur="1.020408163265306s" begin="-0.9795918367346937s" repeatCount="indefinite"></animate>
  </rect>
</g><g transform="rotate(14.4 50 50)">
  <rect x="45.5" y="16.5" rx="4.5" ry="5.5" width="9" height="11" fill="#3c8dbc">
    <animate attributeName="opacity" values="1;0" keyTimes="0;1" dur="1.020408163265306s" begin="-0.9693877551020407s" repeatCount="indefinite"></animate>
  </rect>
</g><g transform="rotate(18 50 50)">
  <rect x="45.5" y="16.5" rx="4.5" ry="5.5" width="9" height="11" fill="#3c8dbc">
    <animate attributeName="opacity" values="1;0" keyTimes="0;1" dur="1.020408163265306s" begin="-0.9591836734693876s" repeatCount="indefinite"></animate>
  </rect>
</g><g transform="rotate(21.6 50 50)">
  <rect x="45.5" y="16.5" rx="4.5" ry="5.5" width="9" height="11" fill="#3c8dbc">
    <animate attributeName="opacity" values="1;0" keyTimes="0;1" dur="1.020408163265306s" begin="-0.9489795918367345s" repeatCount="indefinite"></animate>
  </rect>
</g><g transform="rotate(25.2 50 50)">
  <rect x="45.5" y="16.5" rx="4.5" ry="5.5" width="9" height="11" fill="#3c8dbc">
    <animate attributeName="opacity" values="1;0" keyTimes="0;1" dur="1.020408163265306s" begin="-0.9387755102040815s" repeatCount="indefinite"></animate>
  </rect>
</g><g transform="rotate(28.8 50 50)">
  <rect x="45.5" y="16.5" rx="4.5" ry="5.5" width="9" height="11" fill="#3c8dbc">
    <animate attributeName="opacity" values="1;0" keyTimes="0;1" dur="1.020408163265306s" begin="-0.9285714285714285s" repeatCount="indefinite"></animate>
  </rect>
</g><g transform="rotate(32.4 50 50)">
  <rect x="45.5" y="16.5" rx="4.5" ry="5.5" width="9" height="11" fill="#3c8dbc">
    <animate attributeName="opacity" values="1;0" keyTimes="0;1" dur="1.020408163265306s" begin="-0.9183673469387754s" repeatCount="indefinite"></animate>
  </rect>
</g><g transform="rotate(36 50 50)">
  <rect x="45.5" y="16.5" rx="4.5" ry="5.5" width="9" height="11" fill="#3c8dbc">
    <animate attributeName="opacity" values="1;0" keyTimes="0;1" dur="1.020408163265306s" begin="-0.9081632653061223s" repeatCount="indefinite"></animate>
  </rect>
</g><g transform="rotate(39.6 50 50)">
  <rect x="45.5" y="16.5" rx="4.5" ry="5.5" width="9" height="11" fill="#3c8dbc">
    <animate attributeName="opacity" values="1;0" keyTimes="0;1" dur="1.020408163265306s" begin="-0.8979591836734693s" repeatCount="indefinite"></animate>
  </rect>
</g><g transform="rotate(43.2 50 50)">
  <rect x="45.5" y="16.5" rx="4.5" ry="5.5" width="9" height="11" fill="#3c8dbc">
    <animate attributeName="opacity" values="1;0" keyTimes="0;1" dur="1.020408163265306s" begin="-0.8877551020408162s" repeatCount="indefinite"></animate>
  </rect>
</g><g transform="rotate(46.8 50 50)">
  <rect x="45.5" y="16.5" rx="4.5" ry="5.5" width="9" height="11" fill="#3c8dbc">
    <animate attributeName="opacity" values="1;0" keyTimes="0;1" dur="1.020408163265306s" begin="-0.8775510204081631s" repeatCount="indefinite"></animate>
  </rect>
</g><g transform="rotate(50.4 50 50)">
  <rect x="45.5" y="16.5" rx="4.5" ry="5.5" width="9" height="11" fill="#3c8dbc">
    <animate attributeName="opacity" values="1;0" keyTimes="0;1" dur="1.020408163265306s" begin="-0.8673469387755101s" repeatCount="indefinite"></animate>
  </rect>
</g><g transform="rotate(54 50 50)">
  <rect x="45.5" y="16.5" rx="4.5" ry="5.5" width="9" height="11" fill="#3c8dbc">
    <animate attributeName="opacity" values="1;0" keyTimes="0;1" dur="1.020408163265306s" begin="-0.857142857142857s" repeatCount="indefinite"></animate>
  </rect>
</g><g transform="rotate(57.6 50 50)">
  <rect x="45.5" y="16.5" rx="4.5" ry="5.5" width="9" height="11" fill="#3c8dbc">
    <animate attributeName="opacity" values="1;0" keyTimes="0;1" dur="1.020408163265306s" begin="-0.8469387755102039s" repeatCount="indefinite"></animate>
  </rect>
</g><g transform="rotate(61.2 50 50)">
  <rect x="45.5" y="16.5" rx="4.5" ry="5.5" width="9" height="11" fill="#3c8dbc">
    <animate attributeName="opacity" values="1;0" keyTimes="0;1" dur="1.020408163265306s" begin="-0.836734693877551s" repeatCount="indefinite"></animate>
  </rect>
</g><g transform="rotate(64.8 50 50)">
  <rect x="45.5" y="16.5" rx="4.5" ry="5.5" width="9" height="11" fill="#3c8dbc">
    <animate attributeName="opacity" values="1;0" keyTimes="0;1" dur="1.020408163265306s" begin="-0.8265306122448979s" repeatCount="indefinite"></animate>
  </rect>
</g><g transform="rotate(68.4 50 50)">
  <rect x="45.5" y="16.5" rx="4.5" ry="5.5" width="9" height="11" fill="#3c8dbc">
    <animate attributeName="opacity" values="1;0" keyTimes="0;1" dur="1.020408163265306s" begin="-0.8163265306122448s" repeatCount="indefinite"></animate>
  </rect>
</g><g transform="rotate(72 50 50)">
  <rect x="45.5" y="16.5" rx="4.5" ry="5.5" width="9" height="11" fill="#3c8dbc">
    <animate attributeName="opacity" values="1;0" keyTimes="0;1" dur="1.020408163265306s" begin="-0.8061224489795917s" repeatCount="indefinite"></animate>
  </rect>
</g><g transform="rotate(75.6 50 50)">
  <rect x="45.5" y="16.5" rx="4.5" ry="5.5" width="9" height="11" fill="#3c8dbc">
    <animate attributeName="opacity" values="1;0" keyTimes="0;1" dur="1.020408163265306s" begin="-0.7959183673469387s" repeatCount="indefinite"></animate>
  </rect>
</g><g transform="rotate(79.2 50 50)">
  <rect x="45.5" y="16.5" rx="4.5" ry="5.5" width="9" height="11" fill="#3c8dbc">
    <animate attributeName="opacity" values="1;0" keyTimes="0;1" dur="1.020408163265306s" begin="-0.7857142857142856s" repeatCount="indefinite"></animate>
  </rect>
</g><g transform="rotate(82.8 50 50)">
  <rect x="45.5" y="16.5" rx="4.5" ry="5.5" width="9" height="11" fill="#3c8dbc">
    <animate attributeName="opacity" values="1;0" keyTimes="0;1" dur="1.020408163265306s" begin="-0.7755102040816325s" repeatCount="indefinite"></animate>
  </rect>
</g><g transform="rotate(86.4 50 50)">
  <rect x="45.5" y="16.5" rx="4.5" ry="5.5" width="9" height="11" fill="#3c8dbc">
    <animate attributeName="opacity" values="1;0" keyTimes="0;1" dur="1.020408163265306s" begin="-0.7653061224489794s" repeatCount="indefinite"></animate>
  </rect>
</g><g transform="rotate(90 50 50)">
  <rect x="45.5" y="16.5" rx="4.5" ry="5.5" width="9" height="11" fill="#3c8dbc">
    <animate attributeName="opacity" values="1;0" keyTimes="0;1" dur="1.020408163265306s" begin="-0.7551020408163264s" repeatCount="indefinite"></animate>
  </rect>
</g><g transform="rotate(93.6 50 50)">
  <rect x="45.5" y="16.5" rx="4.5" ry="5.5" width="9" height="11" fill="#3c8dbc">
    <animate attributeName="opacity" values="1;0" keyTimes="0;1" dur="1.020408163265306s" begin="-0.7448979591836734s" repeatCount="indefinite"></animate>
  </rect>
</g><g transform="rotate(97.2 50 50)">
  <rect x="45.5" y="16.5" rx="4.5" ry="5.5" width="9" height="11" fill="#3c8dbc">
    <animate attributeName="opacity" values="1;0" keyTimes="0;1" dur="1.020408163265306s" begin="-0.7346938775510203s" repeatCount="indefinite"></animate>
  </rect>
</g><g transform="rotate(100.8 50 50)">
  <rect x="45.5" y="16.5" rx="4.5" ry="5.5" width="9" height="11" fill="#3c8dbc">
    <animate attributeName="opacity" values="1;0" keyTimes="0;1" dur="1.020408163265306s" begin="-0.7244897959183673s" repeatCount="indefinite"></animate>
  </rect>
</g><g transform="rotate(104.4 50 50)">
  <rect x="45.5" y="16.5" rx="4.5" ry="5.5" width="9" height="11" fill="#3c8dbc">
    <animate attributeName="opacity" values="1;0" keyTimes="0;1" dur="1.020408163265306s" begin="-0.7142857142857142s" repeatCount="indefinite"></animate>
  </rect>
</g><g transform="rotate(108 50 50)">
  <rect x="45.5" y="16.5" rx="4.5" ry="5.5" width="9" height="11" fill="#3c8dbc">
    <animate attributeName="opacity" values="1;0" keyTimes="0;1" dur="1.020408163265306s" begin="-0.7040816326530611s" repeatCount="indefinite"></animate>
  </rect>
</g><g transform="rotate(111.6 50 50)">
  <rect x="45.5" y="16.5" rx="4.5" ry="5.5" width="9" height="11" fill="#3c8dbc">
    <animate attributeName="opacity" values="1;0" keyTimes="0;1" dur="1.020408163265306s" begin="-0.693877551020408s" repeatCount="indefinite"></animate>
  </rect>
</g><g transform="rotate(115.2 50 50)">
  <rect x="45.5" y="16.5" rx="4.5" ry="5.5" width="9" height="11" fill="#3c8dbc">
    <animate attributeName="opacity" values="1;0" keyTimes="0;1" dur="1.020408163265306s" begin="-0.683673469387755s" repeatCount="indefinite"></animate>
  </rect>
</g><g transform="rotate(118.8 50 50)">
  <rect x="45.5" y="16.5" rx="4.5" ry="5.5" width="9" height="11" fill="#3c8dbc">
    <animate attributeName="opacity" values="1;0" keyTimes="0;1" dur="1.020408163265306s" begin="-0.6734693877551019s" repeatCount="indefinite"></animate>
  </rect>
</g><g transform="rotate(122.4 50 50)">
  <rect x="45.5" y="16.5" rx="4.5" ry="5.5" width="9" height="11" fill="#3c8dbc">
    <animate attributeName="opacity" values="1;0" keyTimes="0;1" dur="1.020408163265306s" begin="-0.6632653061224489s" repeatCount="indefinite"></animate>
  </rect>
</g><g transform="rotate(126 50 50)">
  <rect x="45.5" y="16.5" rx="4.5" ry="5.5" width="9" height="11" fill="#3c8dbc">
    <animate attributeName="opacity" values="1;0" keyTimes="0;1" dur="1.020408163265306s" begin="-0.6530612244897959s" repeatCount="indefinite"></animate>
  </rect>
</g><g transform="rotate(129.6 50 50)">
  <rect x="45.5" y="16.5" rx="4.5" ry="5.5" width="9" height="11" fill="#3c8dbc">
    <animate attributeName="opacity" values="1;0" keyTimes="0;1" dur="1.020408163265306s" begin="-0.6428571428571428s" repeatCount="indefinite"></animate>
  </rect>
</g><g transform="rotate(133.2 50 50)">
  <rect x="45.5" y="16.5" rx="4.5" ry="5.5" width="9" height="11" fill="#3c8dbc">
    <animate attributeName="opacity" values="1;0" keyTimes="0;1" dur="1.020408163265306s" begin="-0.6326530612244897s" repeatCount="indefinite"></animate>
  </rect>
</g><g transform="rotate(136.8 50 50)">
  <rect x="45.5" y="16.5" rx="4.5" ry="5.5" width="9" height="11" fill="#3c8dbc">
    <animate attributeName="opacity" values="1;0" keyTimes="0;1" dur="1.020408163265306s" begin="-0.6224489795918366s" repeatCount="indefinite"></animate>
  </rect>
</g><g transform="rotate(140.4 50 50)">
  <rect x="45.5" y="16.5" rx="4.5" ry="5.5" width="9" height="11" fill="#3c8dbc">
    <animate attributeName="opacity" values="1;0" keyTimes="0;1" dur="1.020408163265306s" begin="-0.6122448979591836s" repeatCount="indefinite"></animate>
  </rect>
</g><g transform="rotate(144 50 50)">
  <rect x="45.5" y="16.5" rx="4.5" ry="5.5" width="9" height="11" fill="#3c8dbc">
    <animate attributeName="opacity" values="1;0" keyTimes="0;1" dur="1.020408163265306s" begin="-0.6020408163265305s" repeatCount="indefinite"></animate>
  </rect>
</g><g transform="rotate(147.6 50 50)">
  <rect x="45.5" y="16.5" rx="4.5" ry="5.5" width="9" height="11" fill="#3c8dbc">
    <animate attributeName="opacity" values="1;0" keyTimes="0;1" dur="1.020408163265306s" begin="-0.5918367346938774s" repeatCount="indefinite"></animate>
  </rect>
</g><g transform="rotate(151.2 50 50)">
  <rect x="45.5" y="16.5" rx="4.5" ry="5.5" width="9" height="11" fill="#3c8dbc">
    <animate attributeName="opacity" values="1;0" keyTimes="0;1" dur="1.020408163265306s" begin="-0.5816326530612244s" repeatCount="indefinite"></animate>
  </rect>
</g><g transform="rotate(154.8 50 50)">
  <rect x="45.5" y="16.5" rx="4.5" ry="5.5" width="9" height="11" fill="#3c8dbc">
    <animate attributeName="opacity" values="1;0" keyTimes="0;1" dur="1.020408163265306s" begin="-0.5714285714285714s" repeatCount="indefinite"></animate>
  </rect>
</g><g transform="rotate(158.4 50 50)">
  <rect x="45.5" y="16.5" rx="4.5" ry="5.5" width="9" height="11" fill="#3c8dbc">
    <animate attributeName="opacity" values="1;0" keyTimes="0;1" dur="1.020408163265306s" begin="-0.5612244897959183s" repeatCount="indefinite"></animate>
  </rect>
</g><g transform="rotate(162 50 50)">
  <rect x="45.5" y="16.5" rx="4.5" ry="5.5" width="9" height="11" fill="#3c8dbc">
    <animate attributeName="opacity" values="1;0" keyTimes="0;1" dur="1.020408163265306s" begin="-0.5510204081632653s" repeatCount="indefinite"></animate>
  </rect>
</g><g transform="rotate(165.6 50 50)">
  <rect x="45.5" y="16.5" rx="4.5" ry="5.5" width="9" height="11" fill="#3c8dbc">
    <animate attributeName="opacity" values="1;0" keyTimes="0;1" dur="1.020408163265306s" begin="-0.5408163265306122s" repeatCount="indefinite"></animate>
  </rect>
</g><g transform="rotate(169.2 50 50)">
  <rect x="45.5" y="16.5" rx="4.5" ry="5.5" width="9" height="11" fill="#3c8dbc">
    <animate attributeName="opacity" values="1;0" keyTimes="0;1" dur="1.020408163265306s" begin="-0.5306122448979591s" repeatCount="indefinite"></animate>
  </rect>
</g><g transform="rotate(172.8 50 50)">
  <rect x="45.5" y="16.5" rx="4.5" ry="5.5" width="9" height="11" fill="#3c8dbc">
    <animate attributeName="opacity" values="1;0" keyTimes="0;1" dur="1.020408163265306s" begin="-0.520408163265306s" repeatCount="indefinite"></animate>
  </rect>
</g><g transform="rotate(176.4 50 50)">
  <rect x="45.5" y="16.5" rx="4.5" ry="5.5" width="9" height="11" fill="#3c8dbc">
    <animate attributeName="opacity" values="1;0" keyTimes="0;1" dur="1.020408163265306s" begin="-0.510204081632653s" repeatCount="indefinite"></animate>
  </rect>
</g><g transform="rotate(180 50 50)">
  <rect x="45.5" y="16.5" rx="4.5" ry="5.5" width="9" height="11" fill="#3c8dbc">
    <animate attributeName="opacity" values="1;0" keyTimes="0;1" dur="1.020408163265306s" begin="-0.49999999999999994s" repeatCount="indefinite"></animate>
  </rect>
</g><g transform="rotate(183.6 50 50)">
  <rect x="45.5" y="16.5" rx="4.5" ry="5.5" width="9" height="11" fill="#3c8dbc">
    <animate attributeName="opacity" values="1;0" keyTimes="0;1" dur="1.020408163265306s" begin="-0.48979591836734687s" repeatCount="indefinite"></animate>
  </rect>
</g><g transform="rotate(187.2 50 50)">
  <rect x="45.5" y="16.5" rx="4.5" ry="5.5" width="9" height="11" fill="#3c8dbc">
    <animate attributeName="opacity" values="1;0" keyTimes="0;1" dur="1.020408163265306s" begin="-0.4795918367346938s" repeatCount="indefinite"></animate>
  </rect>
</g><g transform="rotate(190.8 50 50)">
  <rect x="45.5" y="16.5" rx="4.5" ry="5.5" width="9" height="11" fill="#3c8dbc">
    <animate attributeName="opacity" values="1;0" keyTimes="0;1" dur="1.020408163265306s" begin="-0.4693877551020407s" repeatCount="indefinite"></animate>
  </rect>
</g><g transform="rotate(194.4 50 50)">
  <rect x="45.5" y="16.5" rx="4.5" ry="5.5" width="9" height="11" fill="#3c8dbc">
    <animate attributeName="opacity" values="1;0" keyTimes="0;1" dur="1.020408163265306s" begin="-0.4591836734693877s" repeatCount="indefinite"></animate>
  </rect>
</g><g transform="rotate(198 50 50)">
  <rect x="45.5" y="16.5" rx="4.5" ry="5.5" width="9" height="11" fill="#3c8dbc">
    <animate attributeName="opacity" values="1;0" keyTimes="0;1" dur="1.020408163265306s" begin="-0.44897959183673464s" repeatCount="indefinite"></animate>
  </rect>
</g><g transform="rotate(201.6 50 50)">
  <rect x="45.5" y="16.5" rx="4.5" ry="5.5" width="9" height="11" fill="#3c8dbc">
    <animate attributeName="opacity" values="1;0" keyTimes="0;1" dur="1.020408163265306s" begin="-0.43877551020408156s" repeatCount="indefinite"></animate>
  </rect>
</g><g transform="rotate(205.2 50 50)">
  <rect x="45.5" y="16.5" rx="4.5" ry="5.5" width="9" height="11" fill="#3c8dbc">
    <animate attributeName="opacity" values="1;0" keyTimes="0;1" dur="1.020408163265306s" begin="-0.4285714285714285s" repeatCount="indefinite"></animate>
  </rect>
</g><g transform="rotate(208.8 50 50)">
  <rect x="45.5" y="16.5" rx="4.5" ry="5.5" width="9" height="11" fill="#3c8dbc">
    <animate attributeName="opacity" values="1;0" keyTimes="0;1" dur="1.020408163265306s" begin="-0.4183673469387755s" repeatCount="indefinite"></animate>
  </rect>
</g><g transform="rotate(212.4 50 50)">
  <rect x="45.5" y="16.5" rx="4.5" ry="5.5" width="9" height="11" fill="#3c8dbc">
    <animate attributeName="opacity" values="1;0" keyTimes="0;1" dur="1.020408163265306s" begin="-0.4081632653061224s" repeatCount="indefinite"></animate>
  </rect>
</g><g transform="rotate(216 50 50)">
  <rect x="45.5" y="16.5" rx="4.5" ry="5.5" width="9" height="11" fill="#3c8dbc">
    <animate attributeName="opacity" values="1;0" keyTimes="0;1" dur="1.020408163265306s" begin="-0.39795918367346933s" repeatCount="indefinite"></animate>
  </rect>
</g><g transform="rotate(219.6 50 50)">
  <rect x="45.5" y="16.5" rx="4.5" ry="5.5" width="9" height="11" fill="#3c8dbc">
    <animate attributeName="opacity" values="1;0" keyTimes="0;1" dur="1.020408163265306s" begin="-0.38775510204081626s" repeatCount="indefinite"></animate>
  </rect>
</g><g transform="rotate(223.2 50 50)">
  <rect x="45.5" y="16.5" rx="4.5" ry="5.5" width="9" height="11" fill="#3c8dbc">
    <animate attributeName="opacity" values="1;0" keyTimes="0;1" dur="1.020408163265306s" begin="-0.3775510204081632s" repeatCount="indefinite"></animate>
  </rect>
</g><g transform="rotate(226.8 50 50)">
  <rect x="45.5" y="16.5" rx="4.5" ry="5.5" width="9" height="11" fill="#3c8dbc">
    <animate attributeName="opacity" values="1;0" keyTimes="0;1" dur="1.020408163265306s" begin="-0.36734693877551017s" repeatCount="indefinite"></animate>
  </rect>
</g><g transform="rotate(230.4 50 50)">
  <rect x="45.5" y="16.5" rx="4.5" ry="5.5" width="9" height="11" fill="#3c8dbc">
    <animate attributeName="opacity" values="1;0" keyTimes="0;1" dur="1.020408163265306s" begin="-0.3571428571428571s" repeatCount="indefinite"></animate>
  </rect>
</g><g transform="rotate(234 50 50)">
  <rect x="45.5" y="16.5" rx="4.5" ry="5.5" width="9" height="11" fill="#3c8dbc">
    <animate attributeName="opacity" values="1;0" keyTimes="0;1" dur="1.020408163265306s" begin="-0.346938775510204s" repeatCount="indefinite"></animate>
  </rect>
</g><g transform="rotate(237.6 50 50)">
  <rect x="45.5" y="16.5" rx="4.5" ry="5.5" width="9" height="11" fill="#3c8dbc">
    <animate attributeName="opacity" values="1;0" keyTimes="0;1" dur="1.020408163265306s" begin="-0.33673469387755095s" repeatCount="indefinite"></animate>
  </rect>
</g><g transform="rotate(241.2 50 50)">
  <rect x="45.5" y="16.5" rx="4.5" ry="5.5" width="9" height="11" fill="#3c8dbc">
    <animate attributeName="opacity" values="1;0" keyTimes="0;1" dur="1.020408163265306s" begin="-0.32653061224489793s" repeatCount="indefinite"></animate>
  </rect>
</g><g transform="rotate(244.8 50 50)">
  <rect x="45.5" y="16.5" rx="4.5" ry="5.5" width="9" height="11" fill="#3c8dbc">
    <animate attributeName="opacity" values="1;0" keyTimes="0;1" dur="1.020408163265306s" begin="-0.31632653061224486s" repeatCount="indefinite"></animate>
  </rect>
</g><g transform="rotate(248.4 50 50)">
  <rect x="45.5" y="16.5" rx="4.5" ry="5.5" width="9" height="11" fill="#3c8dbc">
    <animate attributeName="opacity" values="1;0" keyTimes="0;1" dur="1.020408163265306s" begin="-0.3061224489795918s" repeatCount="indefinite"></animate>
  </rect>
</g><g transform="rotate(252 50 50)">
  <rect x="45.5" y="16.5" rx="4.5" ry="5.5" width="9" height="11" fill="#3c8dbc">
    <animate attributeName="opacity" values="1;0" keyTimes="0;1" dur="1.020408163265306s" begin="-0.2959183673469387s" repeatCount="indefinite"></animate>
  </rect>
</g><g transform="rotate(255.6 50 50)">
  <rect x="45.5" y="16.5" rx="4.5" ry="5.5" width="9" height="11" fill="#3c8dbc">
    <animate attributeName="opacity" values="1;0" keyTimes="0;1" dur="1.020408163265306s" begin="-0.2857142857142857s" repeatCount="indefinite"></animate>
  </rect>
</g><g transform="rotate(259.2 50 50)">
  <rect x="45.5" y="16.5" rx="4.5" ry="5.5" width="9" height="11" fill="#3c8dbc">
    <animate attributeName="opacity" values="1;0" keyTimes="0;1" dur="1.020408163265306s" begin="-0.2755102040816326s" repeatCount="indefinite"></animate>
  </rect>
</g><g transform="rotate(262.8 50 50)">
  <rect x="45.5" y="16.5" rx="4.5" ry="5.5" width="9" height="11" fill="#3c8dbc">
    <animate attributeName="opacity" values="1;0" keyTimes="0;1" dur="1.020408163265306s" begin="-0.26530612244897955s" repeatCount="indefinite"></animate>
  </rect>
</g><g transform="rotate(266.4 50 50)">
  <rect x="45.5" y="16.5" rx="4.5" ry="5.5" width="9" height="11" fill="#3c8dbc">
    <animate attributeName="opacity" values="1;0" keyTimes="0;1" dur="1.020408163265306s" begin="-0.2551020408163265s" repeatCount="indefinite"></animate>
  </rect>
</g><g transform="rotate(270 50 50)">
  <rect x="45.5" y="16.5" rx="4.5" ry="5.5" width="9" height="11" fill="#3c8dbc">
    <animate attributeName="opacity" values="1;0" keyTimes="0;1" dur="1.020408163265306s" begin="-0.24489795918367344s" repeatCount="indefinite"></animate>
  </rect>
</g><g transform="rotate(273.6 50 50)">
  <rect x="45.5" y="16.5" rx="4.5" ry="5.5" width="9" height="11" fill="#3c8dbc">
    <animate attributeName="opacity" values="1;0" keyTimes="0;1" dur="1.020408163265306s" begin="-0.23469387755102036s" repeatCount="indefinite"></animate>
  </rect>
</g><g transform="rotate(277.2 50 50)">
  <rect x="45.5" y="16.5" rx="4.5" ry="5.5" width="9" height="11" fill="#3c8dbc">
    <animate attributeName="opacity" values="1;0" keyTimes="0;1" dur="1.020408163265306s" begin="-0.22448979591836732s" repeatCount="indefinite"></animate>
  </rect>
</g><g transform="rotate(280.8 50 50)">
  <rect x="45.5" y="16.5" rx="4.5" ry="5.5" width="9" height="11" fill="#3c8dbc">
    <animate attributeName="opacity" values="1;0" keyTimes="0;1" dur="1.020408163265306s" begin="-0.21428571428571425s" repeatCount="indefinite"></animate>
  </rect>
</g><g transform="rotate(284.4 50 50)">
  <rect x="45.5" y="16.5" rx="4.5" ry="5.5" width="9" height="11" fill="#3c8dbc">
    <animate attributeName="opacity" values="1;0" keyTimes="0;1" dur="1.020408163265306s" begin="-0.2040816326530612s" repeatCount="indefinite"></animate>
  </rect>
</g><g transform="rotate(288 50 50)">
  <rect x="45.5" y="16.5" rx="4.5" ry="5.5" width="9" height="11" fill="#3c8dbc">
    <animate attributeName="opacity" values="1;0" keyTimes="0;1" dur="1.020408163265306s" begin="-0.19387755102040813s" repeatCount="indefinite"></animate>
  </rect>
</g><g transform="rotate(291.6 50 50)">
  <rect x="45.5" y="16.5" rx="4.5" ry="5.5" width="9" height="11" fill="#3c8dbc">
    <animate attributeName="opacity" values="1;0" keyTimes="0;1" dur="1.020408163265306s" begin="-0.18367346938775508s" repeatCount="indefinite"></animate>
  </rect>
</g><g transform="rotate(295.2 50 50)">
  <rect x="45.5" y="16.5" rx="4.5" ry="5.5" width="9" height="11" fill="#3c8dbc">
    <animate attributeName="opacity" values="1;0" keyTimes="0;1" dur="1.020408163265306s" begin="-0.173469387755102s" repeatCount="indefinite"></animate>
  </rect>
</g><g transform="rotate(298.8 50 50)">
  <rect x="45.5" y="16.5" rx="4.5" ry="5.5" width="9" height="11" fill="#3c8dbc">
    <animate attributeName="opacity" values="1;0" keyTimes="0;1" dur="1.020408163265306s" begin="-0.16326530612244897s" repeatCount="indefinite"></animate>
  </rect>
</g><g transform="rotate(302.4 50 50)">
  <rect x="45.5" y="16.5" rx="4.5" ry="5.5" width="9" height="11" fill="#3c8dbc">
    <animate attributeName="opacity" values="1;0" keyTimes="0;1" dur="1.020408163265306s" begin="-0.1530612244897959s" repeatCount="indefinite"></animate>
  </rect>
</g><g transform="rotate(306 50 50)">
  <rect x="45.5" y="16.5" rx="4.5" ry="5.5" width="9" height="11" fill="#3c8dbc">
    <animate attributeName="opacity" values="1;0" keyTimes="0;1" dur="1.020408163265306s" begin="-0.14285714285714285s" repeatCount="indefinite"></animate>
  </rect>
</g><g transform="rotate(309.6 50 50)">
  <rect x="45.5" y="16.5" rx="4.5" ry="5.5" width="9" height="11" fill="#3c8dbc">
    <animate attributeName="opacity" values="1;0" keyTimes="0;1" dur="1.020408163265306s" begin="-0.13265306122448978s" repeatCount="indefinite"></animate>
  </rect>
</g><g transform="rotate(313.2 50 50)">
  <rect x="45.5" y="16.5" rx="4.5" ry="5.5" width="9" height="11" fill="#3c8dbc">
    <animate attributeName="opacity" values="1;0" keyTimes="0;1" dur="1.020408163265306s" begin="-0.12244897959183672s" repeatCount="indefinite"></animate>
  </rect>
</g><g transform="rotate(316.8 50 50)">
  <rect x="45.5" y="16.5" rx="4.5" ry="5.5" width="9" height="11" fill="#3c8dbc">
    <animate attributeName="opacity" values="1;0" keyTimes="0;1" dur="1.020408163265306s" begin="-0.11224489795918366s" repeatCount="indefinite"></animate>
  </rect>
</g><g transform="rotate(320.4 50 50)">
  <rect x="45.5" y="16.5" rx="4.5" ry="5.5" width="9" height="11" fill="#3c8dbc">
    <animate attributeName="opacity" values="1;0" keyTimes="0;1" dur="1.020408163265306s" begin="-0.1020408163265306s" repeatCount="indefinite"></animate>
  </rect>
</g><g transform="rotate(324 50 50)">
  <rect x="45.5" y="16.5" rx="4.5" ry="5.5" width="9" height="11" fill="#3c8dbc">
    <animate attributeName="opacity" values="1;0" keyTimes="0;1" dur="1.020408163265306s" begin="-0.09183673469387754s" repeatCount="indefinite"></animate>
  </rect>
</g><g transform="rotate(327.6 50 50)">
  <rect x="45.5" y="16.5" rx="4.5" ry="5.5" width="9" height="11" fill="#3c8dbc">
    <animate attributeName="opacity" values="1;0" keyTimes="0;1" dur="1.020408163265306s" begin="-0.08163265306122448s" repeatCount="indefinite"></animate>
  </rect>
</g><g transform="rotate(331.2 50 50)">
  <rect x="45.5" y="16.5" rx="4.5" ry="5.5" width="9" height="11" fill="#3c8dbc">
    <animate attributeName="opacity" values="1;0" keyTimes="0;1" dur="1.020408163265306s" begin="-0.07142857142857142s" repeatCount="indefinite"></animate>
  </rect>
</g><g transform="rotate(334.8 50 50)">
  <rect x="45.5" y="16.5" rx="4.5" ry="5.5" width="9" height="11" fill="#3c8dbc">
    <animate attributeName="opacity" values="1;0" keyTimes="0;1" dur="1.020408163265306s" begin="-0.06122448979591836s" repeatCount="indefinite"></animate>
  </rect>
</g><g transform="rotate(338.4 50 50)">
  <rect x="45.5" y="16.5" rx="4.5" ry="5.5" width="9" height="11" fill="#3c8dbc">
    <animate attributeName="opacity" values="1;0" keyTimes="0;1" dur="1.020408163265306s" begin="-0.0510204081632653s" repeatCount="indefinite"></animate>
  </rect>
</g><g transform="rotate(342 50 50)">
  <rect x="45.5" y="16.5" rx="4.5" ry="5.5" width="9" height="11" fill="#3c8dbc">
    <animate attributeName="opacity" values="1;0" keyTimes="0;1" dur="1.020408163265306s" begin="-0.04081632653061224s" repeatCount="indefinite"></animate>
  </rect>
</g><g transform="rotate(345.6 50 50)">
  <rect x="45.5" y="16.5" rx="4.5" ry="5.5" width="9" height="11" fill="#3c8dbc">
    <animate attributeName="opacity" values="1;0" keyTimes="0;1" dur="1.020408163265306s" begin="-0.03061224489795918s" repeatCount="indefinite"></animate>
  </rect>
</g><g transform="rotate(349.2 50 50)">
  <rect x="45.5" y="16.5" rx="4.5" ry="5.5" width="9" height="11" fill="#3c8dbc">
    <animate attributeName="opacity" values="1;0" keyTimes="0;1" dur="1.020408163265306s" begin="-0.02040816326530612s" repeatCount="indefinite"></animate>
  </rect>
</g><g transform="rotate(352.8 50 50)">
  <rect x="45.5" y="16.5" rx="4.5" ry="5.5" width="9" height="11" fill="#3c8dbc">
    <animate attributeName="opacity" values="1;0" keyTimes="0;1" dur="1.020408163265306s" begin="-0.01020408163265306s" repeatCount="indefinite"></animate>
  </rect>
</g><g transform="rotate(356.4 50 50)">
  <rect x="45.5" y="16.5" rx="4.5" ry="5.5" width="9" height="11" fill="#3c8dbc">
    <animate attributeName="opacity" values="1;0" keyTimes="0;1" dur="1.020408163265306s" begin="0s" repeatCount="indefinite"></animate>
  </rect>
</g>
<!-- [ldio] generated by https://loading.io/ --></svg>